PathFileType	4	(X/Y/Z)	s03c0203.trc
DataRate	CameraRate	NumFrames	NumMarkers	Units	OrigDataRate	OrigDataStartFrame	OrigNumFrames
200	200	4	50	mm	200	1250	2000
Frame#	Time	racr			lacr			c7			jug			rlel			rdr			llel			ldr			s2			lic			ric			lasi			rasi			rpsi			lpsi			rgt			lgt			rth1			rth2			rth3			rth4			rlfc			rmfc			rsh1			rsh2			rsh3			rsh4			rlmal			rcal			rtoe			rmt5			rmt1			lth1			lth2			lth4			lth3			llfc			lmfc			lsh1			lsh2			lsh3			lsh4			llmal			lcal			ltoe			lmt1			lmt5			SBIKE			LBIKE			RBIKE			
		X1	Y1	Z1	X2	Y2	Z2	X3	Y3	Z3	X4	Y4	Z4	X5	Y5	Z5	X6	Y6	Z6	X7	Y7	Z7	X8	Y8	Z8	X9	Y9	Z9	X10	Y10	Z10	X11	Y11	Z11	X12	Y12	Z12	X13	Y13	Z13	X14	Y14	Z14	X15	Y15	Z15	X16	Y16	Z16	X17	Y17	Z17	X18	Y18	Z18	X19	Y19	Z19	X20	Y20	Z20	X21	Y21	Z21	X22	Y22	Z22	X23	Y23	Z23	X24	Y24	Z24	X25	Y25	Z25	X26	Y26	Z26	X27	Y27	Z27	X28	Y28	Z28	X29	Y29	Z29	X30	Y30	Z30	X31	Y31	Z31	X32	Y32	Z32	X33	Y33	Z33	X34	Y34	Z34	X35	Y35	Z35	X36	Y36	Z36	X37	Y37	Z37	X38	Y38	Z38	X39	Y39	Z39	X40	Y40	Z40	X41	Y41	Z41	X42	Y42	Z42	X43	Y43	Z43	X44	Y44	Z44	X45	Y45	Z45	X46	Y46	Z46	X47	Y47	Z47	X48	Y48	Z48	X49	Y49	Z49	X50	Y50	Z50	
1250	6.2500	487.652401	1402.535440	-122.835331	428.164853	1407.958869	-428.350595	391.704197	1486.199082	-262.779128	398.680450	1309.606162	-261.628999	530.560166	1184.136655	60.492457	721.320902	987.019291	-27.125083	486.647163	1167.041730	-556.929355	715.965031	983.349419	-462.109296	-118.207591	1192.514509	-191.883703	22.768177	1242.132346	-390.570841	61.437933	1229.492191	-24.047067	63.481272	1175.586198	-346.481841	90.689781	1161.332713	-71.198323	-90.226132	1242.972256	-144.819404	-95.532334	1246.505001	-226.542920	-0.530149	1103.955990	-14.377577	1.098587	1164.087598	-408.580478	75.387482	953.829527	1.457002	145.201520	898.288916	4.485374	180.109023	820.178685	-7.468523	174.992517	920.319831	-2.157708	239.795529	710.492445	-41.539887	252.213180	700.610529	-159.278551	201.956774	546.760371	-22.388324	210.409338	459.253552	-39.186741	173.702130	379.293302	-46.119925	242.084075	457.446035	-61.538271	141.978148	253.106178	-74.148187	80.555760	218.608986	-113.772869	385.992809	163.843133	-113.897345	264.435813	161.273239	-44.584571	294.806532	180.442860	-156.577311	127.320700	1101.141823	-444.999091	212.567082	1095.903520	-456.503537	226.518387	1128.335359	-443.605036	286.071019	1046.126321	-468.158171	418.088501	1001.507144	-464.204284	429.887185	983.491249	-331.073407	316.477244	862.660158	-469.277198	287.968467	785.582133	-445.365028	219.394386	727.632881	-435.449421	316.181966	769.950261	-424.407904	140.694107	634.298332	-408.286945	65.439034	616.011762	-358.322894	341.583877	478.153185	-362.222465	254.541408	514.070269	-318.732741	224.215870	509.126912	-431.816602	-220.795629	943.353514	-234.568782	-14.489847	80.987535	-437.202570	-14.462933	80.449016	-36.943674	
1251	6.2550	489.096907	1402.266739	-125.939736	425.356833	1407.109767	-430.826219	391.300716	1485.593788	-264.767341	398.294090	1309.005432	-263.283868	532.894521	1185.141463	59.579060	722.293607	986.789663	-27.664491	484.579774	1165.844499	-557.672999	715.545552	983.311902	-462.200391	-118.304579	1193.073612	-190.899216	21.523426	1243.347829	-388.961948	62.543416	1228.982840	-23.012354	62.825248	1176.205061	-344.943176	91.562164	1160.793297	-69.996670	-89.129133	1242.884823	-142.999874	-95.717598	1247.258959	-224.323186	-0.486243	1103.321754	-13.047575	0.828249	1165.796880	-407.404694	75.007982	953.335585	2.931660	144.872431	897.739299	6.371690	179.715861	819.554307	-5.230531	174.535678	919.798308	-0.339182	239.593827	709.739029	-39.264225	252.551803	699.564060	-156.951349	198.317494	546.779524	-20.597635	205.057352	459.164151	-37.782145	166.781620	379.997275	-44.955826	236.751539	456.858632	-59.960412	132.944547	254.260253	-73.697304	71.545094	220.510589	-113.997969	375.696831	161.226117	-113.637808	253.993364	160.160420	-44.543074	284.917026	179.057355	-156.434017	127.624477	1102.770496	-443.252159	212.962103	1097.808212	-454.208895	226.378348	1130.023308	-440.742486	286.828245	1048.268152	-464.980709	418.836120	1005.617945	-461.255817	430.494961	987.831837	-327.900330	319.687371	864.956048	-467.275629	292.293512	787.335396	-443.631485	224.550625	728.361230	-434.301921	320.539086	772.242873	-422.388492	147.028149	633.430446	-407.612369	71.907371	612.951532	-357.807141	351.941797	483.063419	-362.754077	263.921396	516.547687	-318.826106	233.593883	510.789096	-431.822669	-220.806518	943.423082	-234.578170	-14.499823	81.005669	-437.202656	-14.465617	80.471168	-36.949012	
1252	6.2600	490.522895	1402.054447	-128.871203	422.610075	1406.277018	-433.208811	390.917197	1484.893762	-266.600348	398.110643	1308.318494	-264.739382	535.110662	1186.075502	58.560571	723.180515	986.583445	-28.223000	482.518268	1164.767814	-558.315183	715.124729	983.324279	-462.287797	-118.227527	1193.698104	-188.174383	20.352120	1244.822074	-387.496693	63.365415	1228.544304	-21.928992	62.156360	1176.786988	-343.507072	92.241517	1160.365258	-68.866749	-88.524401	1243.131709	-141.324625	-95.822504	1248.062986	-222.241270	-0.510143	1103.041876	-11.859384	0.459971	1167.472983	-406.381791	74.951969	953.098917	4.353243	144.906946	897.562662	8.093658	179.879964	819.525631	-3.117524	174.493103	919.671479	1.430008	239.755045	709.301529	-37.066765	253.411521	699.025035	-154.702386	195.236388	547.198930	-18.964810	200.114231	459.557362	-36.477867	160.237814	381.267942	-43.875767	231.754036	456.569906	-58.573244	123.990983	256.187194	-73.260880	62.232549	223.235014	-114.001923	365.333181	159.209652	-113.332098	243.598494	159.839807	-44.536668	274.999162	178.373440	-156.428294	127.772010	1104.081984	-441.464440	213.184368	1099.513779	-452.011311	226.149741	1131.578156	-438.056927	287.328386	1050.121058	-462.190934	419.041215	1009.071243	-458.732418	430.930338	991.476655	-324.832392	322.600645	866.581793	-465.442779	296.287945	788.508286	-442.075836	229.408985	728.443644	-433.091990	324.561879	773.851321	-420.535272	153.207538	631.998722	-406.999727	78.601173	609.039937	-357.616723	362.197523	487.118813	-362.219774	273.290420	518.132545	-318.737946	242.984638	511.793321	-431.774204	-220.841236	943.454961	-234.762730	-14.508004	81.012663	-437.198072	-14.454508	80.457848	-36.948927	
1253	6.2650	491.954288	1401.677796	-131.591183	419.879384	1405.411419	-435.390519	390.475730	1483.951955	-268.054160	398.157076	1307.401056	-265.980801	537.324074	1186.937536	57.622044	724.065961	986.448103	-28.670664	480.509777	1163.690763	-558.848211	714.608742	983.420192	-462.409028	-118.089206	1194.295587	-185.656177	19.046909	1246.485532	-385.999833	63.998013	1228.127583	-20.756642	61.477024	1177.331346	-342.176399	92.539977	1160.070659	-67.999567	-88.142472	1243.421544	-139.683142	-95.770231	1249.018330	-220.430639	-0.551113	1102.837008	-10.710446	0.087943	1169.002058	-405.428248	75.081191	952.949330	5.539057	145.222386	897.815155	9.705520	180.500401	819.801637	-1.098599	174.847494	919.870724	2.999584	240.417027	709.349581	-34.913811	254.853906	698.830857	-152.056169	192.807027	548.149782	-17.267857	195.652460	460.579836	-35.135987	154.027551	383.122013	-42.885337	227.220193	457.023173	-57.183663	115.301994	258.814276	-72.745725	53.032336	226.890172	-114.010827	354.978645	157.768790	-113.122301	233.220725	160.305818	-44.533701	265.077809	178.272030	-156.401017	127.696087	1105.207688	-439.753751	213.139877	1100.909660	-450.046698	225.834249	1133.059134	-435.903542	287.491882	1051.835827	-459.987454	419.490296	1011.878357	-455.554957	431.125069	994.304219	-322.013034	325.160860	867.660588	-463.533902	299.938671	789.084915	-440.599299	233.914257	728.034680	-431.926692	328.383733	775.060273	-419.557537	159.435052	629.607354	-406.447795	85.227290	604.351574	-357.329604	372.336570	490.639061	-362.276281	282.571623	519.186103	-318.679605	252.331264	512.130436	-431.756302	-220.813075	943.438492	-234.566626	-14.529306	81.071045	-437.184173	-14.478558	80.468663	-36.940513	
